<mxfile host="app.diagrams.net" modified="2023-07-13T08:03:32.690Z" agent="Mozilla/5.0 (Windows NT 10.0; Win64; x64; rv:109.0) Gecko/20100101 Firefox/115.0" version="21.6.2" etag="tcTZ9CcQ8ZG3HszMc8eh" type="github">
  <diagram name="Page-1" id="CTWZn2792kiwSVYdaN0U">
    <mxGraphModel>
      <root>
        <mxCell id="0" />
        <mxCell id="1" parent="0" />
      </root>
    </mxGraphModel>
  </diagram>
</mxfile>
